<svg preserveAspectRatio="none" width="100%" height="100%" overflow="visible" style="display: block;" viewBox="0 0 19 22" fill="none" xmlns="http://www.w3.org/2000/svg">
<g id="Vector">
<path fill-rule="evenodd" clip-rule="evenodd" d="M3 0.75C3 0.335786 3.33579 2.27699e-09 3.75 2.27699e-09H12.25C12.6642 2.27699e-09 13 0.335786 13 0.75V6H17.75C18.1642 6 18.5 6.33579 18.5 6.75V17.75C18.5 18.1642 18.1642 18.5 17.75 18.5H3.75C3.33579 18.5 3 18.1642 3 17.75V0.75ZM4.5 1.5V17H17V7.5H12.25C11.8358 7.5 11.5 7.16421 11.5 6.75V1.5H4.5Z" fill="var(--fill-0, white)"/>
<path fill-rule="evenodd" clip-rule="evenodd" d="M11.7432 0.197139C12.0486 -0.0827555 12.523 -0.0621283 12.8029 0.243211L18.3029 6.24321C18.5828 6.54855 18.5621 7.02298 18.2568 7.30287C17.9515 7.58276 17.477 7.56214 17.1971 7.2568L11.6971 1.2568C11.4172 0.951459 11.4379 0.477033 11.7432 0.197139Z" fill="var(--fill-0, white)"/>
<path fill-rule="evenodd" clip-rule="evenodd" d="M0.75 8C1.16421 8 1.5 8.33579 1.5 8.75V20H11.25C11.6642 20 12 20.3358 12 20.75C12 21.1642 11.6642 21.5 11.25 21.5H0.75C0.335786 21.5 0 21.1642 0 20.75V8.75C0 8.33579 0.335786 8 0.75 8Z" fill="var(--fill-0, white)"/>
<path fill-rule="evenodd" clip-rule="evenodd" d="M6 8.75C6 8.33579 6.33579 8 6.75 8H8.75C9.16421 8 9.5 8.33579 9.5 8.75C9.5 9.16421 9.16421 9.5 8.75 9.5H6.75C6.33579 9.5 6 9.16421 6 8.75Z" fill="var(--fill-0, white)"/>
<path fill-rule="evenodd" clip-rule="evenodd" d="M6 12.75C6 12.3358 6.33579 12 6.75 12H12.75C13.1642 12 13.5 12.3358 13.5 12.75C13.5 13.1642 13.1642 13.5 12.75 13.5H6.75C6.33579 13.5 6 13.1642 6 12.75Z" fill="var(--fill-0, white)"/>
</g>
</svg>
